PathFileType	3	(X/Y/Z)	F:\ViconData\AntennenMessung\Messung1\Session1\ID05.trc
DataRate	CameraRate	NumFrames	NumMarkers	Units	OrigDataRate	OrigDataStartFrame	OrigNumFrames
120.0	120.0	4	70	mm	120.0	333	1328	
Frame#	Time	Ashort			Along			Atop			A4			Bshort			Blong			Btop			B4			Cshort			Clong			Ctop			C4			Dshort			Dlong			Dtop			D4			Eshort			Elong			Etop			E4			Fshort			Flong			Ftop			F4			Gshort			Glong			Gtop			G4			Hshort			Hlong			Htop			H4			I1			I2			I3			I4			I5			WandAshort			WandAlong			WandAtop			WandA4			WandA15			WandBshort			WandB4			WandB5			WandBtop			WandBlong			WandCshort			WandClong			WandCtop			WandC4			WandC5			Acenter			Aantenna			Bcenter			Bantenna			Ccenter			Cantenna			Dcenter			Dantenna			Ecenter			Eantenna			Fcenter			Fantenna			Gcenter			Gantenna			Hcenter			Hantenna			Icenter			Iantenna			
		X1	Y1	Z1	X2	Y2	Z2	X3	Y3	Z3	X4	Y4	Z4	X5	Y5	Z5	X6	Y6	Z6	X7	Y7	Z7	X8	Y8	Z8	X9	Y9	Z9	X10	Y10	Z10	X11	Y11	Z11	X12	Y12	Z12	X13	Y13	Z13	X14	Y14	Z14	X15	Y15	Z15	X16	Y16	Z16	X17	Y17	Z17	X18	Y18	Z18	X19	Y19	Z19	X20	Y20	Z20	X21	Y21	Z21	X22	Y22	Z22	X23	Y23	Z23	X24	Y24	Z24	X25	Y25	Z25	X26	Y26	Z26	X27	Y27	Z27	X28	Y28	Z28	X29	Y29	Z29	X30	Y30	Z30	X31	Y31	Z31	X32	Y32	Z32	X33	Y33	Z33	X34	Y34	Z34	X35	Y35	Z35	X36	Y36	Z36	X37	Y37	Z37	X38	Y38	Z38	X39	Y39	Z39	X40	Y40	Z40	X41	Y41	Z41	X42	Y42	Z42	X43	Y43	Z43	X44	Y44	Z44	X45	Y45	Z45	X46	Y46	Z46	X47	Y47	Z47	X48	Y48	Z48	X49	Y49	Z49	X50	Y50	Z50	X51	Y51	Z51	X52	Y52	Z52	X53	Y53	Z53	X54	Y54	Z54	X55	Y55	Z55	X56	Y56	Z56	X57	Y57	Z57	X58	Y58	Z58	X59	Y59	Z59	X60	Y60	Z60	X61	Y61	Z61	X62	Y62	Z62	X63	Y63	Z63	X64	Y64	Z64	X65	Y65	Z65	X66	Y66	Z66	X67	Y67	Z67	X68	Y68	Z68	X69	Y69	Z69	X70	Y70	Z70	
333	2.7666667	-1038.2711	214.46021	-1644.2179	-1109.3011	203.45811	-1599.5729	-1063.6251	172.65819	-1625.5247	-1054.0192	261.99835	-1634.9945	-1353.1042	234.7704	1003.9578	-1281.2385	227.00099	1052.3207	-1323.1138	194.0188	1020.8607	-1284.5776	287.9122	1052.7329	813.81274	187.7193	1209.6663	892.94135	178.94698	1178.7927	844.69025	145.06715	1198.4318	860.49396	292.53693	1167.403	1115.7286	209.42203	-1401.5934	1056.198	193.99319	-1460.2379	1095.1005	162.29906	-1423.9213	1069.8573	238.52649	-1425.937	-1204.4569	1685.9292	-1563.3361	-1129.0886	1688.2913	-1606.3309	-1173.1284	1724.3726	-1581.9723	-1133.5438	1581.032	-1603.5494	-1239.6771	1699.2305	1119.3289	-1309.3766	1698.7772	1071.7896	-1270.3271	1736.1454	1096.7069	-1244.7657	1593.7108	1106.5782	988.89227	1664.2787	1162.3962	955.82452	1702.3763	1181.2478	922.3775	1662.23	1214.9846	939.82312	1659.3	1160.0519	999.18414	1668.5337	-1579.5508	1058.8801	1670.1353	-1518.6827	1025.0562	1707.9998	-1551.1837	1059.3044	1672.2106	-1585.7015	-187.90988	1141.5739	506.20676	-185.52579	1144.1305	427.29831	-186.99857	1179.6128	475.10385	-224.22812	1141.3801	473.23349	-139.26714	1144.024	474.89548																																														-1068.9805	209.70351	-1624.9159	-1074.5598	248.29713	-1624.2815	-1321.8518	231.39169	1024.9894	-1320.5437	270.13406	1029.2693	848.15247	183.91232	1196.2678	851.60938	222.69868	1194.1073	1088.8165	202.44707	-1428.1047	1082.8173	240.77536	-1432.0988	-1171.9143	1686.949	-1581.9004	-1170.65	1647.9696	-1581.8254	-1270.9615	1699.027	1097.9908	-1271.6277	1660.0559	1099.3391	953.40131	1705.1681	1182.6293	972.89343	1732.1459	1162.3004	1026.5588	1669.2681	-1551.6383	1028.0709	1630.3	-1552.0959	-186.93401	1142.6204	473.90726	-186.86598	1103.6407	472.64645
334	2.775	-1038.2727	214.48108	-1644.2695	-1109.3087	203.43669	-1599.5663	-1063.6654	172.63252	-1625.5045	-1054.1356	262.06699	-1634.9763	-1353.0253	234.96031	1003.8973	-1281.2914	227.20166	1052.2449	-1323.1106	194.04076	1020.8755	-1284.7147	287.87854	1052.8184	813.87799	187.74214	1209.6542	892.92609	178.98067	1178.6943	844.61151	145.19936	1198.3967	860.51221	292.29681	1167.45	1115.7372	209.40826	-1401.5962	1056.1924	194.00058	-1460.2787	1095.0521	162.26862	-1423.8931	1069.8473	238.54932	-1425.9724	-1204.4399	1685.9305	-1563.3461	-1129.1006	1688.293	-1606.3297	-1173.1218	1724.3867	-1581.9807	-1133.5316	1581.0238	-1603.5409	-1239.6769	1699.2325	1119.3248	-1309.4218	1698.8677	1071.8091	-1270.3346	1736.1891	1096.7125	-1244.6644	1593.9189	1106.5409	988.84705	1664.2534	1162.3992	955.82202	1702.3732	1181.2565	922.72156	1662.0881	1215.0813	939.82159	1659.2729	1160.0237	999.18079	1668.5659	-1579.5669	1058.8802	1670.1428	-1518.6857	1025.0564	1708.0065	-1551.1841	1059.2863	1672.189	-1585.6854	-187.91229	1141.5879	506.22754	-185.52777	1144.1295	427.29025	-187.00331	1179.6257	475.09778	-224.28511	1141.4185	473.19965	-139.26215	1144.0388	474.90613																																														-1069.0487	209.69614	-1624.902	-1074.6538	248.28616	-1624.2749	-1321.7939	231.58237	1024.9467	-1320.4351	270.33151	1029.1488	848.07086	183.95229	1196.2622	851.53326	222.7395	1194.126	1088.8229	202.44395	-1428.1206	1082.8792	240.77675	-1432.1544	-1171.9061	1686.9506	-1581.9075	-1170.6405	1647.9712	-1581.8314	-1271.0049	1699.0686	1097.9814	-1271.7087	1660.0978	1099.3138	953.59698	1704.9413	1182.5269	973.00482	1731.8782	1162.0636	1026.5549	1669.2888	-1551.6506	1028.0634	1630.3209	-1552.1205	-186.93599	1142.6284	473.90848	-186.86507	1103.6487	472.65552
335	2.7833333	-1038.2819	214.42625	-1644.2405	-1109.3159	203.47343	-1599.5637	-1063.6646	172.60529	-1625.5228	-1054.1439	262.0748	-1634.9813	-1353.1008	234.74826	1003.9515	-1281.2472	227.02615	1052.3378	-1323.0956	193.98163	1020.8829	-1284.6804	287.81137	1052.8236	813.86981	187.74844	1209.6819	892.99542	178.9814	1178.7084	844.349	145.4066	1198.3838	860.34851	292.35977	1167.3981	1115.7249	209.40297	-1401.5928	1056.177	193.9803	-1460.2262	1094.9742	162.19632	-1423.8794	1069.8408	238.52423	-1425.9546	-1204.4517	1685.9316	-1563.3392	-1129.0868	1688.2347	-1606.1268	-1173.1312	1724.3931	-1581.9829	-1133.5201	1581.0452	-1603.5598	-1239.7064	1699.2634	1119.3405	-1309.5266	1699.0367	1071.8849	-1270.3317	1736.1833	1096.7155	-1244.6519	1594.007	1106.4427	988.86035	1664.2673	1162.4028	955.7843	1702.2837	1181.2172	922.84778	1661.9709	1214.9952	939.81879	1659.2704	1160.088	999.18207	1668.5609	-1579.5747	1058.744	1669.9651	-1518.7137	1025.045	1708.0104	-1551.1831	1059.2941	1672.2007	-1585.6782	-187.92305	1141.5824	506.23053	-185.53017	1144.1406	427.30493	-186.9937	1179.6312	475.10477	-224.27797	1141.4336	473.21271	-139.2495	1144.0392	474.90543																																														-1069.0027	209.68936	-1624.9186	-1074.5583	248.28648	-1624.2898	-1321.8464	231.38936	1024.998	-1320.553	270.13416	1029.2605	847.84064	183.9845	1196.384	851.35138	222.77409	1194.3733	1088.7577	202.41858	-1428.1456	1082.8331	240.75095	-1432.2115	-1171.8953	1686.9265	-1581.8226	-1170.6096	1647.948	-1581.6559	-1271.0905	1699.1615	1098.009	-1271.8893	1660.1935	1099.3706	953.58502	1704.8114	1182.4681	972.93469	1731.7802	1161.9918	1026.4746	1669.2042	-1551.6868	1027.9103	1630.2339	-1552.1926	-186.94305	1142.63	473.90695	-186.88969	1103.6504	472.64514
336	2.7916667	-1038.2609	214.41228	-1644.2346	-1109.2887	203.47035	-1599.5531	-1063.6024	172.50911	-1625.3999	-1054.0195	261.97412	-1635.0083	-1353.0671	234.80168	1003.8761	-1281.3776	227.01193	1052.3793	-1323.1621	194.03664	1020.8807	-1284.7183	287.84283	1052.8608	813.86664	187.72012	1209.6575	892.98364	179.03506	1178.7812	844.38141	145.35838	1198.3324	860.54877	292.62613	1167.1691	1115.7872	209.72705	-1401.7351	1056.2006	194.03178	-1460.2612	1095.0573	162.22797	-1423.9465	1069.8628	238.55296	-1425.9563	-1204.4519	1685.9314	-1563.3468	-1129.0927	1688.3036	-1606.3433	-1173.1237	1724.3855	-1581.9724	-1133.5322	1581.0471	-1603.553	-1239.7308	1699.3036	1119.3451	-1309.4086	1698.8491	1071.8124	-1270.2806	1736.1035	1096.6775	-1244.7352	1593.6144	1106.6063	988.84088	1664.2324	1162.3934	955.73175	1702.2794	1181.1869	922.86761	1662.1104	1215.0885	939.81006	1659.2814	1160.0734	999.18146	1668.5482	-1579.5508	1058.8873	1670.1453	-1518.6768	1025.0499	1708.0042	-1551.1788	1059.2965	1672.2073	-1585.6888	-187.88826	1141.5485	506.23578	-185.53621	1144.1403	427.28177	-186.98448	1179.6176	475.10034	-224.2914	1141.4355	473.21396	-139.27834	1144.021	474.91446																																														-1069.0084	209.67554	-1624.8921	-1074.6217	248.26588	-1624.3649	-1321.8744	231.41228	1024.9802	-1320.5396	270.15707	1029.2297	847.86371	183.98808	1196.3896	851.3609	222.78194	1194.4387	1088.72	202.59749	-1428.3204	1082.7062	240.90681	-1432.4712	-1171.9114	1686.9557	-1581.9127	-1170.649	1647.9762	-1581.8507	-1270.9664	1699.0997	1098.0367	-1271.6886	1660.1328	1099.4681	953.48126	1704.8655	1182.4642	972.7746	1731.8105	1161.9039	1026.5563	1669.2803	-1551.6403	1028.0721	1630.3126	-1552.1046	-186.92459	1142.6104	473.88733	-186.86151	1103.6312	472.60974
